<svg xmlns="http://www.w3.org/2000/svg" xmlns:xlink="http://www.w3.org/1999/xlink" viewBox="0 0 106.53 109.46"><defs><style>.cls-1{fill:none;}.cls-2{clip-path:url(#clip-path);}.cls-3{fill:#fff;}</style><clipPath id="clip-path" transform="translate(23.07 19.17)"><rect class="cls-1" width="63.57" height="77.68"/></clipPath></defs><title>Recurso 10</title><g id="Capa_2" data-name="Capa 2"><g id="Capa_1-2" data-name="Capa 1"><g class="cls-2"><path d="M82.62,35.56a54.21,54.21,0,0,1-23.55,45,51.31,51.31,0,0,1-57.76,0,54.21,54.21,0,0,1-23.55-45c0-29.75,23.47-53.87,52.43-53.87S82.62,5.81,82.62,35.56" transform="translate(23.07 19.17)"/><path class="cls-3" d="M30.19,90.29a52.09,52.09,0,0,1-29.34-9A55.06,55.06,0,0,1-23.07,35.56c0-30.18,23.89-54.73,53.26-54.73S83.46,5.38,83.46,35.56A55.07,55.07,0,0,1,59.53,81.25a52.09,52.09,0,0,1-29.34,9m0-107.74c-28.45,0-51.59,23.78-51.59,53A53.27,53.27,0,0,0,1.78,79.81a50.47,50.47,0,0,0,56.83,0A53.32,53.32,0,0,0,81.79,35.56c0-29.23-23.15-53-51.6-53Z" transform="translate(23.07 19.17)"/><path d="M53.39,25.29s-2.66,27,6.36,27.33c0,0-8.26,15.1-29.06,12.18V22.44l22.7,2.85" transform="translate(23.07 19.17)"/><path class="cls-3" d="M35.9,66a39.07,39.07,0,0,1-5.32-.38.85.85,0,0,1-.72-.85V22.44a.85.85,0,0,1,.28-.64.76.76,0,0,1,.65-.21L53.5,24.44a.85.85,0,0,1,.73.94c0,.19-1.85,19.38,2.9,25a3.53,3.53,0,0,0,2.65,1.38.87.87,0,0,1,.7.44.89.89,0,0,1,0,.84,25,25,0,0,1-5.77,6.53A29.2,29.2,0,0,1,35.9,66m-4.37-2a36.39,36.39,0,0,0,4.37.28A27.07,27.07,0,0,0,58.35,53.24a5.59,5.59,0,0,1-2.48-1.74C51.2,46,52.18,30,52.49,26l-21-2.64Z" transform="translate(23.07 19.17)"/><path d="M8.67,25.29s2.66,27-6.35,27.33c0,0,8.25,15.1,29.05,12.18V22.44L8.67,25.29" transform="translate(23.07 19.17)"/><path class="cls-3" d="M26.17,66h0A29.26,29.26,0,0,1,7.35,59.57,24.59,24.59,0,0,1,1.59,53a.84.84,0,0,1,0-.84.86.86,0,0,1,.7-.44,3.53,3.53,0,0,0,2.64-1.38c4.76-5.62,2.93-24.81,2.91-25a.84.84,0,0,1,.73-.94l22.7-2.85a.75.75,0,0,1,.65.21.86.86,0,0,1,.29.64V64.8a.86.86,0,0,1-.73.85,38.92,38.92,0,0,1-5.31.38M3.72,53.24A27,27,0,0,0,26.16,64.32h0A36.65,36.65,0,0,0,30.54,64V23.4L9.57,26C9.89,30,10.87,46,6.19,51.5a5.56,5.56,0,0,1-2.47,1.74Z" transform="translate(23.07 19.17)"/><path class="cls-3" d="M59.07,80.53a51.31,51.31,0,0,1-57.76,0A31.39,31.39,0,0,1,13.42,64.7c.71-.48,1.45-.94,2.2-1.36a29.83,29.83,0,0,1,14.57-3.78h.5l.68,0c.54,0,1.09,0,1.62.1l.48.05.3,0,.32,0,.21,0,.3,0,.23,0h.07l.47.08h0l.72.13h0l.73.16.13,0,.28.07.09,0,.18,0,.18,0h0l.41.11.22.06.23.07.51.15.39.13.25.08.4.14.23.08.81.3.37.16.62.26.78.35.68.33,0,0,.29.14,0,0,.61.32h0l.55.31.15.09.1.06.08,0,.46.28.15.1.11.07c.26.16.51.32.76.5A31.52,31.52,0,0,1,59.07,80.53" transform="translate(23.07 19.17)"/><path class="cls-3" d="M30.19,90.29a52.09,52.09,0,0,1-29.34-9,.86.86,0,0,1-.32-1A32.35,32.35,0,0,1,13,64c.74-.5,1.5-1,2.27-1.39a30.37,30.37,0,0,1,8.91-3.29,30,30,0,0,1,6.57-.59l.7,0c.51,0,1.06.05,1.66.11l.49,0,.32,0,.31,0,.21,0,.21,0,.87.14h0l.69.13h0l.75.16.13,0,.3.07.1,0,.17,0,.19,0h0l.4.11.26.07.12,0,.09,0,.45.14.07,0,.42.13.25.09.42.14.24.09c.26.09.54.19.81.3l.16.07.25.1c.19.07.39.16.6.26s.55.23.82.36L44,62l0,0,.31.16h0l.59.31,0,0,.12.06.45.26.14.08.06,0,.08,0,0,0,.48.3.12.07.14.09.78.51a32.21,32.21,0,0,1,9.39,9.81,32.57,32.57,0,0,1,3,6.46.86.86,0,0,1-.32,1,52.09,52.09,0,0,1-29.34,9M2.33,80.18a50.47,50.47,0,0,0,55.73,0,31.07,31.07,0,0,0-2.66-5.47,30.6,30.6,0,0,0-8.89-9.3c-.25-.16-.49-.33-.74-.48l-.08-.05,0,0-.15-.09-.43-.27-.1,0-.06,0,0,0-.12-.07-.44-.25-.08,0,0,0-.59-.32h0l-.26-.13-.05,0h0l-.66-.32-.76-.34c-.2-.09-.39-.18-.59-.25L41,62.5l-.17-.06-.76-.29-.21-.07-.41-.14-.25-.09-.38-.12-.06,0-.42-.12-.22-.07h0l-.15,0h0l-.38-.1,0,0h0l-.14,0-.06,0-.11,0-.09,0-.29-.06-.14,0L36,61h0l-.68-.14h0l-.52-.08-.13,0-.21,0-.16,0h0l-.17,0-.34-.05-.26,0-.49,0c-.57-.06-1.08-.09-1.58-.11l-.66,0h-.49a29.61,29.61,0,0,0-5.73.56A28.92,28.92,0,0,0,16,64.1c-.72.4-1.45.84-2.14,1.31A30.64,30.64,0,0,0,2.33,80.18Z" transform="translate(23.07 19.17)"/><path d="M47,64.7a17.45,17.45,0,0,1-4.33,9.48,16.68,16.68,0,0,1-12.44,5.6,17,17,0,0,1-16.38-13,17.48,17.48,0,0,1-.39-2,29.88,29.88,0,0,1,16.77-5.14c.95,0,1.88,0,2.8.13l.48.05.3,0,.32,0,.21,0,.3,0,.23,0,.2,0,.34.06c.48.08,1,.18,1.45.29l.32.07.18.05.34.08.05,0,.43.11.45.13.51.15.39.13.25.08.4.14.5.18h0l.51.19.37.16c.33.13.66.27,1,.42l.42.19.38.18.34.18.32.16.2.1.81.45.3.17.18.1.23.14.23.14.15.1.42.26.45.31" transform="translate(23.07 19.17)"/><path class="cls-3" d="M30.19,80.63A17.83,17.83,0,0,1,13,67a19.24,19.24,0,0,1-.41-2.14A.86.86,0,0,1,13,64,30.74,30.74,0,0,1,30.19,58.7c1,0,2,0,2.88.14l.49,0,.32,0,.24,0h.08l.21,0,.2,0,.32,0H35l.18,0,.16,0,.16,0c.55.1,1,.19,1.51.3l.31.07h0l.06,0,.11,0h0l.28.07h.07l.44.12.48.14.44.13.06,0,.42.13.25.09.42.14.51.19h0l.5.19.16.06.25.11,1,.42.44.2.36.17,0,0,.12.06.24.12.32.16,0,0,.19.1.82.45.3.17.16.09s0,0,0,0l.62.38.44.27.47.31a.88.88,0,0,1,.36.83,18.29,18.29,0,0,1-4.54,10,17.63,17.63,0,0,1-13.06,5.87M14.32,65.12c.08.47.18.94.29,1.4a16.17,16.17,0,0,0,15.58,12.4A15.93,15.93,0,0,0,42,73.59a16.55,16.55,0,0,0,4-8.47l-.39-.25-.79-.48-.28-.16-.79-.43-.14-.08-.06,0-.29-.15-.23-.11L43,63.37l-.36-.18L42.18,63l-.93-.41L41,62.5l-.16-.06-.47-.18-.07,0-.44-.16-.4-.13-.25-.09-.38-.12-.06,0-.42-.12-.43-.12,0,0-.4-.1-.07,0-.26-.06,0,0h0l-.06,0-.09,0-.3-.06c-.45-.11-.91-.2-1.41-.29l-.32-.05h0l-.14,0-.16,0-.2,0-.15,0h0l-.16,0-.11,0-.21,0-.3,0-.47,0a26.72,26.72,0,0,0-2.73-.13,29.06,29.06,0,0,0-15.87,4.7Z" transform="translate(23.07 19.17)"/><path d="M24.3,64.43V52.51A5.43,5.43,0,0,1,29.63,47h1.13a5.43,5.43,0,0,1,5.33,5.48V64.43a5.43,5.43,0,0,1-5.33,5.48H29.63" transform="translate(23.07 19.17)"/><path class="cls-3" d="M30.76,70.77H29.63a.86.86,0,0,1,0-1.71h1.13a4.57,4.57,0,0,0,4.49-4.63V52.51a4.56,4.56,0,0,0-4.49-4.62H29.63a4.57,4.57,0,0,0-4.5,4.62V64.43a.83.83,0,1,1-1.66,0V52.51a6.25,6.25,0,0,1,6.16-6.33h1.13a6.26,6.26,0,0,1,6.16,6.33V64.43a6.27,6.27,0,0,1-6.16,6.34" transform="translate(23.07 19.17)"/><path d="M48.37,45.12a11.72,11.72,0,0,0,5.72-5.22c2.43-4.34.9-7,.42-7.63a2.41,2.41,0,0,0-3.67,0c-.33.57-5.17,9.59-2.47,12.85" transform="translate(23.07 19.17)"/><path class="cls-3" d="M48.37,46a.81.81,0,0,1-.64-.3c-3.24-3.93,2.34-13.76,2.4-13.86a3.24,3.24,0,0,1,2.63-1.27,3,3,0,0,1,2.39,1.17c1,1.2,2,4.37-.33,8.61a12.6,12.6,0,0,1-6.18,5.61.84.84,0,0,1-.27,0m4.39-13.71a1.84,1.84,0,0,0-1.21.46c-.78,1.33-4.21,8.35-2.87,11.32a11.37,11.37,0,0,0,4.69-4.57c2.39-4.28.59-6.56.51-6.66A1.39,1.39,0,0,0,52.76,32.27Z" transform="translate(23.07 19.17)"/><path d="M12.92,45.12A11.72,11.72,0,0,1,7.2,39.9c-2.43-4.34-.9-7-.42-7.63a2.41,2.41,0,0,1,3.67,0c.33.57,5.17,9.59,2.47,12.85" transform="translate(23.07 19.17)"/><path class="cls-3" d="M12.92,46a.84.84,0,0,1-.27,0,12.64,12.64,0,0,1-6.18-5.61c-2.36-4.24-1.32-7.41-.33-8.61a3,3,0,0,1,2.39-1.17,3.25,3.25,0,0,1,2.64,1.28c.05.09,5.63,9.92,2.39,13.85a.81.81,0,0,1-.64.3M8.53,32.27a1.39,1.39,0,0,0-1.12.55c-.07.1-1.88,2.38.51,6.66a11.23,11.23,0,0,0,4.69,4.57c1.34-3-2.08-10-2.88-11.34a1.88,1.88,0,0,0-1.2-.44Z" transform="translate(23.07 19.17)"/><path d="M51.79,31.57c0-13.14-9.44-23.8-21.1-23.8S9.59,18.43,9.59,31.57s9.45,26.9,21.1,26.9c11,0,21.1-13.85,21.1-26.9" transform="translate(23.07 19.17)"/><path class="cls-3" d="M30.69,59.33c-12.55,0-21.93-14.65-21.93-27.76C8.76,18,18.6,6.91,30.69,6.91S52.63,18,52.63,31.57c0,14-10.87,27.76-21.94,27.76m0-50.7c-11.17,0-20.26,10.29-20.26,22.94a30.4,30.4,0,0,0,6,17.86c4,5.28,9,8.18,14.26,8.18,4.89,0,10-3,14-8.23A30,30,0,0,0,51,31.57C51,18.92,41.87,8.63,30.69,8.63Z" transform="translate(23.07 19.17)"/><path class="cls-3" d="M47.26,31.17a.84.84,0,0,1-.45-.13,10.72,10.72,0,0,0-11.4-.53.81.81,0,0,1-1.14-.28.86.86,0,0,1,.26-1.18,12.37,12.37,0,0,1,13.18.54A.88.88,0,0,1,48,30.78a.84.84,0,0,1-.71.39" transform="translate(23.07 19.17)"/><path class="cls-3" d="M44.71,35a.82.82,0,0,1-.43-.12,5.53,5.53,0,0,0-6.35-.06.82.82,0,0,1-1.17-.14.89.89,0,0,1,.14-1.21,7.08,7.08,0,0,1,8.25,0,.87.87,0,0,1,.28,1.18.85.85,0,0,1-.72.4" transform="translate(23.07 19.17)"/><path class="cls-3" d="M15.72,35a.83.83,0,0,1-.71-.4.87.87,0,0,1,.27-1.18,7.09,7.09,0,0,1,8.26,0,.89.89,0,0,1,.14,1.21.83.83,0,0,1-1.17.15,5.47,5.47,0,0,0-6.35.05.88.88,0,0,1-.44.12" transform="translate(23.07 19.17)"/><path class="cls-3" d="M25.35,31a.8.8,0,0,1-.5-.17,10.74,10.74,0,0,0-11.4-.44A.82.82,0,0,1,12.32,30a.87.87,0,0,1,.35-1.16,12.35,12.35,0,0,1,13.18.59.87.87,0,0,1,.17,1.2.8.8,0,0,1-.67.34" transform="translate(23.07 19.17)"/><path class="cls-3" d="M30.52,44.89a4,4,0,0,1-1.63-.35.87.87,0,0,1-.39-1.14A.83.83,0,0,1,29.61,43a2.1,2.1,0,0,0,1.7,0,.83.83,0,0,1,1.12.4.87.87,0,0,1-.4,1.14,3.38,3.38,0,0,1-1.51.35" transform="translate(23.07 19.17)"/><path class="cls-3" d="M30.17,48.86a9.78,9.78,0,0,1-3.94-.76A.86.86,0,0,1,25.82,47a.83.83,0,0,1,1.1-.43,9.33,9.33,0,0,0,6.67,0,.83.83,0,0,1,1.07.51.86.86,0,0,1-.5,1.1,11.56,11.56,0,0,1-4,.73" transform="translate(23.07 19.17)"/><path class="cls-3" d="M42,36.16c0,1.6-.9,2.9-2,2.9s-2-1.3-2-2.9.9-2.89,2-2.89,2,1.29,2,2.89" transform="translate(23.07 19.17)"/><path class="cls-3" d="M22.52,36.16c0,1.6-.9,2.9-2,2.9s-2-1.3-2-2.9.91-2.89,2-2.89,2,1.29,2,2.89" transform="translate(23.07 19.17)"/><path d="M32.59,22A17.66,17.66,0,0,0,51.49,33.8s2.61-3.88,1.73-12.3C52.22,12,44,4,30.69,6.88A31.29,31.29,0,0,0,32.59,22" transform="translate(23.07 19.17)"/><path class="cls-3" d="M49.45,34.75h0C36.1,34.74,32,23,31.8,22.26A32,32,0,0,1,29.87,6.73.88.88,0,0,1,30.52,6,26.4,26.4,0,0,1,36,5.44c11.31,0,17.21,8,18,16,.9,8.64-1.76,12.71-1.87,12.87a.8.8,0,0,1-.62.37c-.71.06-1.42.1-2.11.1m-18-27.14a31.61,31.61,0,0,0,1.93,14.06l0,0A16.62,16.62,0,0,0,49.45,33h0c.5,0,1,0,1.54-.05.55-1.08,2.09-4.78,1.4-11.38C51.63,14.41,46.27,7.16,36,7.16a24.36,24.36,0,0,0-4.56.45Z" transform="translate(23.07 19.17)"/><path d="M33.26,7.77a5,5,0,0,0-1.45-4.43C29.81,1.4,3.28,5.39,9.59,31.57c0,0,6.18-15.65,22.56-17l1.11-6.78" transform="translate(23.07 19.17)"/><path class="cls-3" d="M9.59,32.43H9.53a.85.85,0,0,1-.75-.65c-2-8.39-1-15.38,3.13-20.76,5-6.57,13.41-9,17.83-9,2,0,2.48.5,2.65.66a5.87,5.87,0,0,1,1.69,5.21L33,14.69a.83.83,0,0,1-.75.71C16.53,16.71,10.43,31.75,10.36,31.9a.81.81,0,0,1-.77.53M29.74,3.77C25.8,3.77,17.83,6,13.22,12.08,9.84,16.52,8.73,22.2,9.91,29a33.31,33.31,0,0,1,4.2-6,26.83,26.83,0,0,1,17.32-9.25l1-6.12v0A4.17,4.17,0,0,0,31.24,4a3.85,3.85,0,0,0-1.5-.19Z" transform="translate(23.07 19.17)"/></g></g></g></svg>