<svg xmlns="http://www.w3.org/2000/svg" xmlns:xlink="http://www.w3.org/1999/xlink" viewBox="0 0 76.68 42.1"><defs><style>.cls-1,.cls-4,.cls-5{fill:none;}.cls-2{clip-path:url(#clip-path);}.cls-3{fill:#fff;}.cls-4{stroke:#348078;}.cls-4,.cls-5{stroke-linecap:round;stroke-linejoin:round;stroke-width:1.23px;}.cls-5{stroke:#938987;}</style><clipPath id="clip-path" transform="translate(-0.81 -0.15)"><rect class="cls-1" width="78.18" height="42.37"/></clipPath></defs><title>libro</title><g id="Capa_2" data-name="Capa 2"><g id="Capa_1-2" data-name="Capa 1"><g class="cls-2"><path class="cls-3" d="M21.47,35.06C6.76,37.5,5.24,36,5.24,36l5.07-25,.95-1.91h-1c-1.72,0-2.5,1.29-3.12,3.2L1.57,36.36c-.75,2.72,1.6,3.7,3.59,3.7H33.88V35.69c-2.69-1-6.65-1.58-12.4-.63" transform="translate(-0.81 -0.15)"/><path class="cls-4" d="M21.47,35.06C6.76,37.5,5.24,36,5.24,36l5.07-25,.95-1.91h-1c-1.72,0-2.5,1.29-3.12,3.2L1.57,36.36c-.75,2.72,1.61,3.7,3.59,3.7H33.88V35.69c-2.69-1-6.65-1.58-12.4-.63Z" transform="translate(-0.81 -0.15)"/><path class="cls-3" d="M56.87,35.06C71.58,37.5,73.1,36,73.1,36L68,11l-1-1.91h1c1.72,0,2.43,1.2,3.11,3.2l5.56,24.09c.56,2.91-1.61,3.7-3.59,3.7H44.46V35.69c2.69-1,6.65-1.58,12.41-.63" transform="translate(-0.81 -0.15)"/><path class="cls-4" d="M56.87,35.06C71.58,37.5,73.1,36,73.1,36L68,11l-1-1.91h1c1.72,0,2.43,1.2,3.11,3.2l5.56,24.09c.56,2.91-1.61,3.7-3.59,3.7H44.46V35.69c2.69-1,6.65-1.58,12.41-.63Z" transform="translate(-0.81 -0.15)"/><path class="cls-3" d="M39.17,40.06s-1.1-2.76-5.29-4.37v4.37a8.06,8.06,0,0,0,5.29,1.58,8.06,8.06,0,0,0,5.29-1.58V35.69c-4.18,1.61-5.29,4.37-5.29,4.37" transform="translate(-0.81 -0.15)"/><path class="cls-4" d="M39.17,40.06s-1.1-2.76-5.29-4.37v4.37a8.06,8.06,0,0,0,5.29,1.58,8.06,8.06,0,0,0,5.29-1.58V35.69C40.28,37.3,39.17,40.06,39.17,40.06Z" transform="translate(-0.81 -0.15)"/><path class="cls-5" d="M8.36,29.73s1.06,1.5,14.57-.94,16.24,5,16.24,5V9.07S35.46.33,23.72,4.31A28.21,28.21,0,0,1,13,5.55Z" transform="translate(-0.81 -0.15)"/><path class="cls-5" d="M22.93,28.79c-13.51,2.44-14.57.94-14.57.94L5.24,36s1.52,1.5,16.23-.94,17.7,5,17.7,5V33.79s-2.74-7.44-16.24-5Z" transform="translate(-0.81 -0.15)"/><polygon class="cls-5" points="7.55 29.58 12.2 5.4 9.5 10.83 4.43 35.84 7.55 29.58"/><path class="cls-5" d="M58.84,5.46a22.78,22.78,0,0,0,6.49.09L70,29.73s-1.06,1.5-14.57-.94-16.24,5-16.24,5V9.07S42.35,0,54.54,4.32" transform="translate(-0.81 -0.15)"/><path class="cls-5" d="M55.41,28.79c13.51,2.44,14.57.94,14.57.94L73.1,36s-1.52,1.5-16.23-.94-17.7,5-17.7,5V33.79S41.91,26.35,55.41,28.79Z" transform="translate(-0.81 -0.15)"/><polygon class="cls-5" points="69.17 29.58 64.52 5.4 67.23 10.83 72.29 35.84 69.17 29.58"/><path class="cls-5" d="M46.63,10.54a5.06,5.06,0,0,1,.59,1.32s.32-1.15.43-1.57a1.76,1.76,0,0,1,.77-1.19A22.54,22.54,0,0,1,51.8,6.48a11.3,11.3,0,0,1,.28,1.43c.56-.6.42-1.69.9-2.35A10.26,10.26,0,0,1,55,4c1.52-1.17,3.35-1.86,4.74-3.22a12.91,12.91,0,0,1-.6,3.81,4.34,4.34,0,0,1-.55,1.31c-.32.45-.4.45-1,.51,1,.15.91.54.61,1.32s-.51,1.34-.82,2c-.17.35-.55,1.18-.94,1.34s-1.24-.37-1.75-.52c.34.4.61.86,1,1.28.64.79-.84,3.24-1.84,3.37-.69.09-1.66-.9-2.36-1.05.39.3,1.35,1.36,1.26,1.9s-3.25,2.82-3.32,2.73a5.1,5.1,0,0,1-1-1.66,19,19,0,0,1-.07,2.14c-1.84.5-4.72,1.56-4.77-1.85S46.48,10.36,46.63,10.54Z" transform="translate(-0.81 -0.15)"/><path class="cls-5" d="M41.74,21.25a15.58,15.58,0,0,1,1.36-2.59A19.15,19.15,0,0,1,47,14.32a19.68,19.68,0,0,1,2.39-1.67,18.52,18.52,0,0,0,2.36-1.56A19.06,19.06,0,0,0,53.87,9.2,19.38,19.38,0,0,0,55.71,7a15.88,15.88,0,0,0,1.52-2.47A13.69,13.69,0,0,1,56,7.18,16.77,16.77,0,0,1,54.2,9.52a16.85,16.85,0,0,1-2.12,2,18.6,18.6,0,0,1-2.41,1.64,18.53,18.53,0,0,0-2.34,1.59,22.35,22.35,0,0,0-2.12,1.89,25.75,25.75,0,0,0-1.87,2.17,19.48,19.48,0,0,0-1.6,2.42Z" transform="translate(-0.81 -0.15)"/></g></g></g></svg>