<svg xmlns="http://www.w3.org/2000/svg" xmlns:xlink="http://www.w3.org/1999/xlink" viewBox="0 0 26.63 63.57"><defs><style>.cls-1{fill:none;}.cls-2{clip-path:url(#clip-path);}.cls-3{fill:#ff914d;fill-rule:evenodd;}</style><clipPath id="clip-path" transform="translate(0 -0.43)"><rect class="cls-1" width="26.46" height="64.44"/></clipPath></defs><title>Recurso 14</title><g id="Capa_2" data-name="Capa 2"><g id="Capa_1-2" data-name="Capa 1"><g class="cls-2"><path class="cls-3" d="M10.84.43A1.93,1.93,0,0,0,9.37.89,58.17,58.17,0,0,0,2,8.79,8.22,8.22,0,0,0,.94,11a2.68,2.68,0,0,1-.72,1.15c-.17.15-.34.36-.11.59s.34,0,.52-.07C5.05,10.5,8,6.5,11.45,3.21a1.84,1.84,0,0,0,.43-2A1.09,1.09,0,0,0,10.84.43Z" transform="translate(0 -0.43)"/><path class="cls-3" d="M18.21,32.23c-2.21-.07-4.4,0-6.61,0A5.6,5.6,0,0,0,8,33.52c-.19.15-.54.25-.41.57s.42.07.63,0a1.13,1.13,0,0,1,.9,0,12,12,0,0,0,4.45.64c3.64,0,7.29.08,10.94-.14a2.25,2.25,0,0,0,1.77-.81c.53-.67.39-1.09-.43-1.27a5.63,5.63,0,0,0-.92-.1C22.72,32.23,20.46,32.25,18.21,32.23Z" transform="translate(0 -0.43)"/><path class="cls-3" d="M13.5,64a1.06,1.06,0,0,0,1.22-.83c.13-.56-.2-.83-.61-1.1a37.44,37.44,0,0,1-3.73-2.92,27.91,27.91,0,0,0-8-5c-.2-.07-.41-.26-.59,0s0,.34.17.42a12.55,12.55,0,0,1,2.23,2.2,83.25,83.25,0,0,0,8,6.69A2,2,0,0,0,13.5,64Z" transform="translate(0 -0.43)"/><path class="cls-3" d="M11.6,48.81a.84.84,0,0,0,.83-.51.65.65,0,0,0-.1-.88c-1.13-.77-1.89-2.06-3.23-2.56-.21-.07-.39-.27-.61-.06s0,.41,0,.62a5.2,5.2,0,0,0,2,3A1.69,1.69,0,0,0,11.6,48.81Z" transform="translate(0 -0.43)"/><path class="cls-3" d="M5.68,20.55A8.34,8.34,0,0,0,7.92,19c.44-.36.84-.76,1.25-1.14.16-.15.39-.3.18-.57s-.36-.06-.52,0A10,10,0,0,0,5.68,20.55Z" transform="translate(0 -0.43)"/></g></g></g></svg>