<svg xmlns="http://www.w3.org/2000/svg" xmlns:xlink="http://www.w3.org/1999/xlink" viewBox="0 0 26.63 63.57"><defs><style>.cls-1{fill:none;}.cls-2{clip-path:url(#clip-path);}.cls-3{fill:#ff914d;fill-rule:evenodd;}</style><clipPath id="clip-path" transform="translate(0 -0.43)"><rect class="cls-1" width="26.63" height="64.44"/></clipPath></defs><title>Recurso 13</title><g id="Capa_2" data-name="Capa 2"><g id="Capa_1-2" data-name="Capa 1"><g class="cls-2"><path class="cls-3" d="M15.79.43a1.9,1.9,0,0,1,1.47.46,58.25,58.25,0,0,1,7.39,7.9,8.51,8.51,0,0,1,1,2.17,2.7,2.7,0,0,0,.73,1.15c.17.15.33.36.1.59s-.34,0-.52-.07C21.58,10.5,18.67,6.5,15.19,3.21a1.84,1.84,0,0,1-.44-2A1.1,1.1,0,0,1,15.79.43Z" transform="translate(0 -0.43)"/><path class="cls-3" d="M8.43,32.23c2.2-.07,4.4,0,6.6,0a5.65,5.65,0,0,1,3.57,1.27c.18.15.53.25.4.57s-.42.07-.63,0a1.13,1.13,0,0,0-.9,0,12,12,0,0,1-4.44.64c-3.65,0-7.3.08-10.95-.14a2.25,2.25,0,0,1-1.77-.81c-.52-.67-.39-1.09.44-1.27a5.51,5.51,0,0,1,.91-.1C3.91,32.23,6.17,32.25,8.43,32.23Z" transform="translate(0 -0.43)"/><path class="cls-3" d="M13.13,64a1.07,1.07,0,0,1-1.22-.83c-.13-.56.2-.83.62-1.1a38.63,38.63,0,0,0,3.73-2.92,27.73,27.73,0,0,1,8-5c.21-.07.42-.26.59,0s0,.34-.17.42a12.49,12.49,0,0,0-2.22,2.2,83.37,83.37,0,0,1-8,6.69A2,2,0,0,1,13.13,64Z" transform="translate(0 -0.43)"/><path class="cls-3" d="M15,48.81a.85.85,0,0,1-.84-.51.65.65,0,0,1,.1-.88c1.13-.77,1.89-2.06,3.24-2.56.2-.07.38-.27.6-.06s0,.41,0,.62a5.23,5.23,0,0,1-2,3A1.71,1.71,0,0,1,15,48.81Z" transform="translate(0 -0.43)"/><path class="cls-3" d="M21,20.55A8.34,8.34,0,0,1,18.71,19c-.43-.36-.84-.76-1.25-1.14-.15-.15-.39-.3-.17-.57s.36-.06.52,0A9.93,9.93,0,0,1,21,20.55Z" transform="translate(0 -0.43)"/></g></g></g></svg>